<?xml version="1.0" encoding="utf-8"?>
<!-- Generator: Adobe Illustrator 19.0.0, SVG Export Plug-In . SVG Version: 6.00 Build 0)  -->
<svg version="1.1" id="Layer_1" xmlns="http://www.w3.org/2000/svg" xmlns:xlink="http://www.w3.org/1999/xlink" x="0px" y="0px"
	 viewBox="-223 231 513 99" style="enable-background:new -223 231 513 99;" xml:space="preserve">
<style type="text/css">
	.st0{opacity:0.75;}
	.st1{fill:#F36E21;}
	.st2{fill:#8A0707;}
</style>
<g>
	<g class="st0">
		<path d="M-79.3,278h-8.2v-13h-27.2v13h-8.1v-16.8c0-2.6,0.4-5,1.1-7c0.7-2.1,1.8-3.8,3.2-5.3c1.4-1.4,3.2-2.5,5.2-3.3
			c2.1-0.7,4.4-1.1,7.1-1.1h26.9V278z M-87.4,252.4h-14.7c-2.5,0-4.4,0.1-5.9,0.4s-2.6,0.6-3.5,1.1c-0.8,0.5-1.4,1-1.8,1.7
			c-0.4,0.7-0.6,1.4-0.8,2.1h26.7V252.4z"/>
	</g>
	<g>
		<path class="st1" d="M-78.3,278h-8.2v-13h-27.2v13h-8.1v-16.8c0-2.6,0.4-5,1.1-7c0.7-2.1,1.8-3.8,3.2-5.3c1.4-1.4,3.2-2.5,5.2-3.3
			c2.1-0.7,4.4-1.1,7.1-1.1h26.9V278z M-86.4,252.4h-14.7c-2.5,0-4.4,0.1-5.9,0.4s-2.6,0.6-3.5,1.1c-0.8,0.5-1.4,1-1.8,1.7
			c-0.4,0.7-0.6,1.4-0.8,2.1h26.7V252.4z"/>
	</g>
</g>
<g>
	<g class="st0">
		<path d="M-61.1,257.5h19c1.7,0,2.9-0.4,3.9-1.3c0.9-0.9,1.5-2.1,1.8-3.8h-28.4V278H-73v-33.5h44.4v6.4c0,8.4-4.1,13.1-12.3,14
			l12.7,13.1H-38l-12.9-13h-10.2L-61.1,257.5L-61.1,257.5z"/>
	</g>
	<g>
		<path class="st1" d="M-60.1,257.5h19c1.7,0,2.9-0.4,3.9-1.3c0.9-0.9,1.5-2.1,1.8-3.8h-28.4V278H-72v-33.5h44.4v6.4
			c0,8.4-4.1,13.1-12.3,14l12.7,13.1H-37l-12.9-13h-10.2L-60.1,257.5L-60.1,257.5z"/>
	</g>
</g>
<g>
	<g class="st0">
		<path d="M18.6,278h-8.2v-13h-27.2v13h-8.1v-16.8c0-2.6,0.4-5,1.1-7c0.7-2.1,1.8-3.8,3.2-5.3c1.4-1.4,3.2-2.5,5.2-3.3
			c2.1-0.7,4.4-1.1,7.1-1.1h26.9V278z M10.5,252.4H-4.2c-2.5,0-4.4,0.1-5.9,0.4s-2.6,0.6-3.5,1.1c-0.8,0.5-1.5,1-1.8,1.7
			c-0.4,0.7-0.6,1.4-0.8,2.1h26.7V252.4z"/>
	</g>
	<g>
		<path class="st1" d="M19.6,278h-8.2v-13h-27.2v13h-8.1v-16.8c0-2.6,0.4-5,1.1-7c0.7-2.1,1.8-3.8,3.2-5.3c1.4-1.4,3.2-2.5,5.2-3.3
			c2.1-0.7,4.4-1.1,7.1-1.1h26.9V278z M11.5,252.4H-3.2c-2.5,0-4.4,0.1-5.9,0.4s-2.6,0.6-3.5,1.1c-0.8,0.5-1.5,1-1.8,1.7
			c-0.4,0.7-0.6,1.4-0.8,2.1h26.7V252.4z"/>
	</g>
</g>
<g>
	<g class="st0">
		<path d="M68.3,244.5v7.9H41.4c-1.7,0-3.1,0.1-4.2,0.4s-2,0.8-2.7,1.5s-1.1,1.6-1.4,2.8c-0.3,1.2-0.4,2.6-0.4,4.4v8.6h27.7v-5h-6.1
			v-7.5h14.2V278H24.6v-16.8c0-2.6,0.4-5,1.1-7c0.7-2.1,1.8-3.8,3.2-5.3c1.4-1.4,3.2-2.5,5.2-3.3c2.1-0.7,4.4-1.1,7.1-1.1
			C41.2,244.5,68.3,244.5,68.3,244.5z"/>
	</g>
	<g>
		<path class="st1" d="M69.3,244.5v7.9H42.4c-1.7,0-3.1,0.1-4.2,0.4s-2,0.8-2.7,1.5s-1.1,1.6-1.4,2.8c-0.3,1.2-0.4,2.6-0.4,4.4v8.6
			h27.7v-5h-6.1v-7.5h14.2V278H25.6v-16.8c0-2.6,0.4-5,1.1-7c0.7-2.1,1.8-3.8,3.2-5.3c1.4-1.4,3.2-2.5,5.2-3.3
			c2.1-0.7,4.4-1.1,7.1-1.1C42.2,244.5,69.3,244.5,69.3,244.5z"/>
	</g>
</g>
<g>
	<g class="st0">
		<path d="M116.5,278h-8.1v-12.9H82.5V278h-8.1v-33.5h8.1v13h25.9v-13h8.1V278z"/>
	</g>
	<g>
		<path class="st1" d="M117.5,278h-8.1v-12.9H83.5V278h-8.1v-33.5h8.1v13h25.9v-13h8.1V278z"/>
	</g>
</g>
<g>
	<g class="st0">
		<path d="M122.5,244.5H156c2.5,0,4.8,0.4,6.8,1.1c2.1,0.7,3.8,1.8,5.3,3.2c1.5,1.4,2.6,3,3.4,4.8c0.8,1.9,1.2,4,1.2,6.2V278h-8.1
			v-16.7c0-5.9-2.9-8.8-8.6-8.8h-25.5V278h-8.1v-33.5H122.5z M143,256.5h8.2V278H143V256.5z"/>
	</g>
	<g>
		<path class="st1" d="M123.5,244.5H157c2.5,0,4.8,0.4,6.8,1.1c2.1,0.7,3.8,1.8,5.3,3.2c1.5,1.4,2.6,3,3.4,4.8
			c0.8,1.9,1.2,4,1.2,6.2V278h-8.1v-16.7c0-5.9-2.9-8.8-8.6-8.8h-25.5V278h-8.1v-33.5H123.5z M144,256.5h8.2V278H144V256.5z"/>
	</g>
</g>
<g>
	<g class="st0">
		<path d="M221.1,252.4h-34.3v5.1h33.4v7.5h-33c0.5,1.6,1.4,2.9,2.7,3.7c1.3,0.9,3.2,1.3,5.6,1.3h25.6v8h-25.7c-2.6,0-4.9-0.4-7-1.2
			c-2.1-0.8-3.8-1.9-5.3-3.3s-2.6-3.2-3.3-5.2c-0.8-2.1-1.1-4.4-1.1-6.9v-16.9h42.4L221.1,252.4L221.1,252.4z"/>
	</g>
	<g>
		<path class="st1" d="M222.1,252.4h-34.3v5.1h33.4v7.5h-33c0.5,1.6,1.4,2.9,2.7,3.7c1.3,0.9,3.2,1.3,5.6,1.3h25.6v8h-25.7
			c-2.6,0-4.9-0.4-7-1.2c-2.1-0.8-3.8-1.9-5.3-3.3s-2.6-3.2-3.3-5.2c-0.8-2.1-1.1-4.4-1.1-6.9v-16.9h42.4L222.1,252.4L222.1,252.4z"
			/>
	</g>
</g>
<g>
	<g class="st0">
		<path d="M268.2,313.4h-8.1v-48.3h-25.9V278H226v-33.5h8.1v13H260v-13h8.1v68.9H268.2z"/>
	</g>
	<g>
		<path class="st1" d="M269.2,313.4h-8.1v-48.3h-25.9V278H227v-33.5h8.1v13H261v-13h8.1v68.9H269.2z"/>
	</g>
</g>
<g>
	<g class="st0">
		<path d="M-114.7,317.7h-8.1v-33.4h8.1V317.7z"/>
	</g>
	<g>
		<path class="st2" d="M-113.7,317.7h-8.1v-33.4h8.1V317.7z"/>
	</g>
</g>
<g>
	<g class="st0">
		<path d="M-64.9,284.3v7.9h-26.9c-1.7,0-3.1,0.1-4.2,0.4c-1.1,0.3-2,0.8-2.7,1.5c-0.7,0.7-1.1,1.6-1.4,2.8
			c-0.3,1.2-0.4,2.6-0.4,4.4v8.6h27.7v-5h-6.1v-7.5h14.2v20.4h-43.9V301c0-2.6,0.4-5,1.1-7c0.7-2.1,1.8-3.8,3.2-5.3
			c1.4-1.4,3.2-2.5,5.2-3.3c2.1-0.7,4.4-1.1,7.1-1.1C-92,284.3-64.9,284.3-64.9,284.3z"/>
	</g>
	<g>
		<path class="st2" d="M-63.9,284.3v7.9h-26.9c-1.7,0-3.1,0.1-4.2,0.4c-1.1,0.3-2,0.8-2.7,1.5c-0.7,0.7-1.1,1.6-1.4,2.8
			c-0.3,1.2-0.4,2.6-0.4,4.4v8.6h27.7v-5h-6.1v-7.5h14.2v20.4h-43.9V301c0-2.6,0.4-5,1.1-7c0.7-2.1,1.8-3.8,3.2-5.3
			c1.4-1.4,3.2-2.5,5.2-3.3c2.1-0.7,4.4-1.1,7.1-1.1C-91,284.3-63.9,284.3-63.9,284.3z"/>
	</g>
</g>
<g>
	<g class="st0">
		<path d="M-50.8,317.7h-8.1v-33.4h8.1V317.7z"/>
	</g>
	<g>
		<path class="st2" d="M-49.8,317.7h-8.1v-33.4h8.1V317.7z"/>
	</g>
</g>
<g>
	<g class="st0">
		<path d="M-3.7,292.2h-15.4v25.6h-8.1v-25.6h-5.6c-3.5,0-5.4,1.7-5.7,5.1h-7.7c0.7-8.7,5.6-13,14.7-13h27.9L-3.7,292.2L-3.7,292.2z
			"/>
	</g>
	<g>
		<path class="st2" d="M-2.7,292.2h-15.4v25.6h-8.1v-25.6h-5.6c-3.5,0-5.4,1.7-5.7,5.1h-7.7c0.7-8.7,5.6-13,14.7-13h27.9L-2.7,292.2
			L-2.7,292.2z"/>
	</g>
</g>
<g>
	<g class="st0">
		<path d="M42.2,317.7H34v-12.9H6.8v12.9h-8.1V301c0-2.6,0.4-5,1.1-7c0.7-2.1,1.8-3.8,3.2-5.3c1.4-1.4,3.2-2.5,5.2-3.3
			c2.1-0.7,4.4-1.1,7.1-1.1h26.9V317.7z M34,292.2H19.3c-2.5,0-4.4,0.1-5.9,0.4c-1.5,0.3-2.6,0.6-3.5,1.1c-0.8,0.5-1.4,1-1.8,1.7
			c-0.4,0.7-0.6,1.4-0.8,2.1H34V292.2z"/>
	</g>
	<g>
		<path class="st2" d="M43.2,317.7H35v-12.9H7.8v12.9h-8.1V301c0-2.6,0.4-5,1.1-7c0.7-2.1,1.8-3.8,3.2-5.3c1.4-1.4,3.2-2.5,5.2-3.3
			c2.1-0.7,4.4-1.1,7.1-1.1h26.9V317.7z M35,292.2H20.3c-2.5,0-4.4,0.1-5.9,0.4c-1.5,0.3-2.6,0.6-3.5,1.1c-0.8,0.5-1.4,1-1.8,1.7
			c-0.4,0.7-0.6,1.4-0.8,2.1H35V292.2z"/>
	</g>
</g>
<g>
	<g class="st0">
		<polygon points="56,310 56,284 49,284 49,318 75,318 75,310 		"/>
	</g>
	<g>
		<polygon class="st2" points="57,310 57,284 50,284 50,318 76,318 76,310 		"/>
	</g>
</g>
<g>
	<g class="st0">
		<rect x="77" y="310" width="191.1" height="8"/>
	</g>
	<g>
		<rect x="78" y="310" class="st1" width="191.1" height="8"/>
	</g>
</g>
<g>
	<g class="st0">
		<polygon points="-205,245 -205,257.2 -205,262.3 -205,280 -190,280 -190,262 -143,262 -143,280 -127,280 -127,245 		"/>
	</g>
	<g>
		<polygon class="st1" points="-204,245 -204,257.2 -204,262.3 -204,280 -189,280 -189,262 -142,262 -142,280 -126,280 -126,245 		
			"/>
	</g>
</g>
<g>
	<g class="st0">
		<path d="M-143,281v1.7c0,12.9-4.9,19.3-15.6,19.3H-190v-21h-15v39h46.7c4.9,0,9.2-1.1,13-2.8c3.8-1.6,7-4.2,9.6-7.3
			c2.6-3.1,4.9-7,6.3-11.5c1.4-4.5,2.4-9.7,2.4-15.4v-2H-143z"/>
	</g>
	<g>
		<path class="st2" d="M-142,281v1.7c0,12.9-4.9,19.3-15.6,19.3H-189v-21h-15v39h46.7c4.9,0,9.2-1.1,13-2.8c3.8-1.6,7-4.2,9.6-7.3
			c2.6-3.1,4.9-7,6.3-11.5c1.4-4.5,2.4-9.7,2.4-15.4v-2H-142z"/>
	</g>
</g>
<polygon class="st1" points="268.2,318 267.9,318 268,313.4 268.2,313.4 "/>
</svg>
