<?xml version="1.0" encoding="utf-8"?>
<!-- Generator: Adobe Illustrator 19.0.0, SVG Export Plug-In . SVG Version: 6.00 Build 0)  -->
<svg version="1.1" id="Layer_1" xmlns="http://www.w3.org/2000/svg" xmlns:xlink="http://www.w3.org/1999/xlink" x="0px" y="0px"
	 viewBox="0 0 513 99" style="enable-background:new 0 0 513 99;" xml:space="preserve">
<style type="text/css">
	.st0{opacity:0.75;}
	.st1{fill:#F36E21;}
	.st2{fill:#8A0707;}
</style>
<g>
	<g class="st0">
		<path d="M143.7,47h-8.2V34h-27.2V47h-8.1V30.2c0-2.6,0.4-5,1.1-7c0.7-2.1,1.8-3.8,3.2-5.3c1.4-1.4,3.2-2.5,5.2-3.3
			c2.1-0.7,4.4-1.1,7.1-1.1h26.9V47z M135.6,21.4h-14.7c-2.5,0-4.4,0.1-5.9,0.4c-1.5,0.3-2.6,0.6-3.5,1.1c-0.8,0.5-1.4,1-1.8,1.7
			c-0.4,0.7-0.6,1.4-0.8,2.1h26.7V21.4z"/>
	</g>
	<g>
		<path class="st1" d="M144.7,47h-8.2V34h-27.2V47h-8.1V30.2c0-2.6,0.4-5,1.1-7c0.7-2.1,1.8-3.8,3.2-5.3c1.4-1.4,3.2-2.5,5.2-3.3
			c2.1-0.7,4.4-1.1,7.1-1.1h26.9V47z M136.6,21.4h-14.7c-2.5,0-4.4,0.1-5.9,0.4c-1.5,0.3-2.6,0.6-3.5,1.1c-0.8,0.5-1.4,1-1.8,1.7
			c-0.4,0.7-0.6,1.4-0.8,2.1h26.7V21.4z"/>
	</g>
</g>
<g>
	<g class="st0">
		<path d="M161.9,26.5h19c1.7,0,2.9-0.4,3.9-1.3c0.9-0.9,1.5-2.1,1.8-3.8h-28.4V47H150V13.5h44.4v6.4c0,8.4-4.1,13.1-12.3,14
			L194.8,47H185L172.1,34h-10.2V26.5z"/>
	</g>
	<g>
		<path class="st1" d="M162.9,26.5h19c1.7,0,2.9-0.4,3.9-1.3c0.9-0.9,1.5-2.1,1.8-3.8h-28.4V47H151V13.5h44.4v6.4
			c0,8.4-4.1,13.1-12.3,14L195.8,47H186L173.1,34h-10.2V26.5z"/>
	</g>
</g>
<g>
	<g class="st0">
		<path d="M241.6,47h-8.2V34h-27.2V47h-8.1V30.2c0-2.6,0.4-5,1.1-7c0.7-2.1,1.8-3.8,3.2-5.3c1.4-1.4,3.2-2.5,5.2-3.3
			c2.1-0.7,4.4-1.1,7.1-1.1h26.9V47z M233.5,21.4h-14.7c-2.5,0-4.4,0.1-5.9,0.4c-1.5,0.3-2.6,0.6-3.5,1.1c-0.8,0.5-1.5,1-1.8,1.7
			c-0.4,0.7-0.6,1.4-0.8,2.1h26.7V21.4z"/>
	</g>
	<g>
		<path class="st1" d="M242.6,47h-8.2V34h-27.2V47h-8.1V30.2c0-2.6,0.4-5,1.1-7c0.7-2.1,1.8-3.8,3.2-5.3c1.4-1.4,3.2-2.5,5.2-3.3
			c2.1-0.7,4.4-1.1,7.1-1.1h26.9V47z M234.5,21.4h-14.7c-2.5,0-4.4,0.1-5.9,0.4c-1.5,0.3-2.6,0.6-3.5,1.1c-0.8,0.5-1.5,1-1.8,1.7
			c-0.4,0.7-0.6,1.4-0.8,2.1h26.7V21.4z"/>
	</g>
</g>
<g>
	<g class="st0">
		<path d="M291.3,13.5v7.9h-26.9c-1.7,0-3.1,0.1-4.2,0.4c-1.1,0.3-2,0.8-2.7,1.5c-0.7,0.7-1.1,1.6-1.4,2.8c-0.3,1.2-0.4,2.6-0.4,4.4
			v8.6h27.7v-5h-6.1v-7.5h14.2V47h-43.9V30.2c0-2.6,0.4-5,1.1-7c0.7-2.1,1.8-3.8,3.2-5.3c1.4-1.4,3.2-2.5,5.2-3.3
			c2.1-0.7,4.4-1.1,7.1-1.1H291.3z"/>
	</g>
	<g>
		<path class="st1" d="M292.3,13.5v7.9h-26.9c-1.7,0-3.1,0.1-4.2,0.4c-1.1,0.3-2,0.8-2.7,1.5c-0.7,0.7-1.1,1.6-1.4,2.8
			c-0.3,1.2-0.4,2.6-0.4,4.4v8.6h27.7v-5h-6.1v-7.5h14.2V47h-43.9V30.2c0-2.6,0.4-5,1.1-7c0.7-2.1,1.8-3.8,3.2-5.3
			c1.4-1.4,3.2-2.5,5.2-3.3c2.1-0.7,4.4-1.1,7.1-1.1H292.3z"/>
	</g>
</g>
<g>
	<g class="st0">
		<path d="M339.5,47h-8.1V34.1h-25.9V47h-8.1V13.5h8.1v13h25.9v-13h8.1V47z"/>
	</g>
	<g>
		<path class="st1" d="M340.5,47h-8.1V34.1h-25.9V47h-8.1V13.5h8.1v13h25.9v-13h8.1V47z"/>
	</g>
</g>
<g>
	<g class="st0">
		<path d="M345.5,13.5H379c2.5,0,4.8,0.4,6.8,1.1c2.1,0.7,3.8,1.8,5.3,3.2c1.5,1.4,2.6,3,3.4,4.8c0.8,1.9,1.2,4,1.2,6.2V47h-8.1
			V30.3c0-5.9-2.9-8.8-8.6-8.8h-25.5V47h-8.1V13.5z M366,25.5h8.2V47H366V25.5z"/>
	</g>
	<g>
		<path class="st1" d="M346.5,13.5H380c2.5,0,4.8,0.4,6.8,1.1c2.1,0.7,3.8,1.8,5.3,3.2c1.5,1.4,2.6,3,3.4,4.8c0.8,1.9,1.2,4,1.2,6.2
			V47h-8.1V30.3c0-5.9-2.9-8.8-8.6-8.8h-25.5V47h-8.1V13.5z M367,25.5h8.2V47H367V25.5z"/>
	</g>
</g>
<g>
	<g class="st0">
		<path d="M444.1,21.4h-34.3v5.1h33.4V34h-33c0.5,1.6,1.4,2.9,2.7,3.7c1.3,0.9,3.2,1.3,5.6,1.3h25.6V47h-25.7c-2.6,0-4.9-0.4-7-1.2
			c-2.1-0.8-3.8-1.9-5.3-3.3c-1.5-1.4-2.6-3.2-3.3-5.2c-0.8-2.1-1.1-4.4-1.1-6.9V13.5h42.4V21.4z"/>
	</g>
	<g>
		<path class="st1" d="M445.1,21.4h-34.3v5.1h33.4V34h-33c0.5,1.6,1.4,2.9,2.7,3.7c1.3,0.9,3.2,1.3,5.6,1.3h25.6V47h-25.7
			c-2.6,0-4.9-0.4-7-1.2c-2.1-0.8-3.8-1.9-5.3-3.3c-1.5-1.4-2.6-3.2-3.3-5.2c-0.8-2.1-1.1-4.4-1.1-6.9V13.5h42.4V21.4z"/>
	</g>
</g>
<g>
	<g class="st0">
		<path d="M491.2,82.4h-8.1V34.1h-25.9V47H449V13.5h8.1v13h25.9v-13h8.1V82.4z"/>
	</g>
	<g>
		<path class="st1" d="M492.2,82.4h-8.1V34.1h-25.9V47H450V13.5h8.1v13h25.9v-13h8.1V82.4z"/>
	</g>
</g>
<g>
	<g class="st0">
		<path d="M108.3,86.7h-8.1V53.3h8.1V86.7z"/>
	</g>
	<g>
		<path class="st2" d="M109.3,86.7h-8.1V53.3h8.1V86.7z"/>
	</g>
</g>
<g>
	<g class="st0">
		<path d="M158.1,53.3v7.9h-26.9c-1.7,0-3.1,0.1-4.2,0.4c-1.1,0.3-2,0.8-2.7,1.5c-0.7,0.7-1.1,1.6-1.4,2.8c-0.3,1.2-0.4,2.6-0.4,4.4
			v8.6h27.7v-5h-6.1v-7.5h14.2v20.4h-43.9V70c0-2.6,0.4-5,1.1-7c0.7-2.1,1.8-3.8,3.2-5.3c1.4-1.4,3.2-2.5,5.2-3.3
			c2.1-0.7,4.4-1.1,7.1-1.1H158.1z"/>
	</g>
	<g>
		<path class="st2" d="M159.1,53.3v7.9h-26.9c-1.7,0-3.1,0.1-4.2,0.4c-1.1,0.3-2,0.8-2.7,1.5c-0.7,0.7-1.1,1.6-1.4,2.8
			c-0.3,1.2-0.4,2.6-0.4,4.4v8.6h27.7v-5h-6.1v-7.5h14.2v20.4h-43.9V70c0-2.6,0.4-5,1.1-7c0.7-2.1,1.8-3.8,3.2-5.3
			c1.4-1.4,3.2-2.5,5.2-3.3c2.1-0.7,4.4-1.1,7.1-1.1H159.1z"/>
	</g>
</g>
<g>
	<g class="st0">
		<path d="M172.2,86.7h-8.1V53.3h8.1V86.7z"/>
	</g>
	<g>
		<path class="st2" d="M173.2,86.7h-8.1V53.3h8.1V86.7z"/>
	</g>
</g>
<g>
	<g class="st0">
		<path d="M219.3,61.2h-15.4v25.6h-8.1V61.2h-5.6c-3.5,0-5.4,1.7-5.7,5.1h-7.7c0.7-8.7,5.6-13,14.7-13h27.9V61.2z"/>
	</g>
	<g>
		<path class="st2" d="M220.3,61.2h-15.4v25.6h-8.1V61.2h-5.6c-3.5,0-5.4,1.7-5.7,5.1h-7.7c0.7-8.7,5.6-13,14.7-13h27.9V61.2z"/>
	</g>
</g>
<g>
	<g class="st0">
		<path d="M265.2,86.7H257V73.8h-27.2v12.9h-8.1V70c0-2.6,0.4-5,1.1-7c0.7-2.1,1.8-3.8,3.2-5.3c1.4-1.4,3.2-2.5,5.2-3.3
			c2.1-0.7,4.4-1.1,7.1-1.1h26.9V86.7z M257,61.2h-14.7c-2.5,0-4.4,0.1-5.9,0.4c-1.5,0.3-2.6,0.6-3.5,1.1c-0.8,0.5-1.4,1-1.8,1.7
			c-0.4,0.7-0.6,1.4-0.8,2.1H257V61.2z"/>
	</g>
	<g>
		<path class="st2" d="M266.2,86.7H258V73.8h-27.2v12.9h-8.1V70c0-2.6,0.4-5,1.1-7c0.7-2.1,1.8-3.8,3.2-5.3c1.4-1.4,3.2-2.5,5.2-3.3
			c2.1-0.7,4.4-1.1,7.1-1.1h26.9V86.7z M258,61.2h-14.7c-2.5,0-4.4,0.1-5.9,0.4c-1.5,0.3-2.6,0.6-3.5,1.1c-0.8,0.5-1.4,1-1.8,1.7
			c-0.4,0.7-0.6,1.4-0.8,2.1H258V61.2z"/>
	</g>
</g>
<g>
	<g class="st0">
		<polygon points="279,79 279,53 272,53 272,87 298,87 298,79 		"/>
	</g>
	<g>
		<polygon class="st2" points="280,79 280,53 273,53 273,87 299,87 299,79 		"/>
	</g>
</g>
<g>
	<g class="st0">
		<rect x="300" y="79" width="191" height="8"/>
	</g>
	<g>
		<rect x="301" y="79" class="st1" width="191" height="8"/>
	</g>
</g>
<g>
</g>
<g>
	<g class="st0">
		<polygon points="18,14 18,26.2 18,31.3 18,49 33,49 33,31 80,31 80,49 96,49 96,14 		"/>
	</g>
	<g>
		<polygon class="st1" points="19,14 19,26.2 19,31.3 19,49 34,49 34,31 81,31 81,49 97,49 97,14 		"/>
	</g>
</g>
<g>
	<g class="st0">
		<path d="M80,50v1.7C80,64.6,75.1,71,64.4,71H33V50H18v39h46.7c4.9,0,9.2-1.1,13-2.8c3.8-1.6,7-4.2,9.6-7.3c2.6-3.1,4.9-7,6.3-11.5
			C95,62.9,96,57.7,96,52v-2H80z"/>
	</g>
	<g>
		<path class="st2" d="M81,50v1.7C81,64.6,76.1,71,65.4,71H34V50H19v39h46.7c4.9,0,9.2-1.1,13-2.8c3.8-1.6,7-4.2,9.6-7.3
			c2.6-3.1,4.9-7,6.3-11.5C96,62.9,97,57.7,97,52v-2H81z"/>
	</g>
</g>
<polygon class="st1" points="492.2,87 491.9,87 492,82.4 492.2,82.4 "/>
</svg>
